<svg width="67" height="13" viewBox="0 0 67 13" fill="none" xmlns="http://www.w3.org/2000/svg">
<g clip-path="url(#clip0_1_5)">
<path d="M1.056 11C0.976 11 0.904 10.972 0.84 10.916C0.776 10.86 0.744 10.784 0.744 10.688V2.912C0.744 2.824 0.776 2.752 0.84 2.696C0.904 2.632 0.976 2.6 1.056 2.6H3.012C3.1 2.6 3.172 2.632 3.228 2.696C3.292 2.752 3.324 2.824 3.324 2.912V5.624H5.772V2.912C5.772 2.824 5.8 2.752 5.856 2.696C5.92 2.632 5.996 2.6 6.084 2.6H8.04C8.128 2.6 8.2 2.632 8.256 2.696C8.32 2.752 8.352 2.824 8.352 2.912V10.688C8.352 10.776 8.32 10.852 8.256 10.916C8.2 10.972 8.128 11 8.04 11H6.084C5.996 11 5.92 10.972 5.856 10.916C5.8 10.852 5.772 10.776 5.772 10.688V7.904H3.324V10.688C3.324 10.776 3.292 10.852 3.228 10.916C3.172 10.972 3.1 11 3.012 11H1.056ZM10.1615 11C10.0815 11 10.0095 10.972 9.94547 10.916C9.88147 10.852 9.84947 10.776 9.84947 10.688V2.912C9.84947 2.824 9.88147 2.752 9.94547 2.696C10.0095 2.632 10.0815 2.6 10.1615 2.6H12.2015C12.2895 2.6 12.3615 2.632 12.4175 2.696C12.4815 2.752 12.5135 2.824 12.5135 2.912V10.688C12.5135 10.776 12.4815 10.852 12.4175 10.916C12.3615 10.972 12.2895 11 12.2015 11H10.1615ZM16.3619 11C16.2179 11 16.1019 10.96 16.0139 10.88C15.9339 10.8 15.8819 10.716 15.8579 10.628L13.4939 2.948C13.4859 2.916 13.4819 2.888 13.4819 2.864C13.4819 2.792 13.5059 2.732 13.5539 2.684C13.6099 2.628 13.6739 2.6 13.7459 2.6H15.6059C15.7499 2.6 15.8619 2.64 15.9419 2.72C16.0219 2.8 16.0739 2.88 16.0979 2.96L17.5139 7.964L18.9299 2.96C18.9539 2.88 19.0059 2.8 19.0859 2.72C19.1659 2.64 19.2779 2.6 19.4219 2.6H21.2819C21.3539 2.6 21.4139 2.628 21.4619 2.684C21.5099 2.732 21.5339 2.792 21.5339 2.864C21.5339 2.888 21.5299 2.916 21.5219 2.948L19.1699 10.628C19.1459 10.716 19.0899 10.8 19.0019 10.88C18.9219 10.96 18.8059 11 18.6539 11H16.3619ZM22.8294 11C22.7494 11 22.6774 10.972 22.6134 10.916C22.5494 10.852 22.5174 10.776 22.5174 10.688V2.912C22.5174 2.824 22.5494 2.752 22.6134 2.696C22.6774 2.632 22.7494 2.6 22.8294 2.6H28.7094C28.7974 2.6 28.8734 2.632 28.9374 2.696C29.0014 2.752 29.0334 2.824 29.0334 2.912V4.328C29.0334 4.408 29.0014 4.48 28.9374 4.544C28.8734 4.608 28.7974 4.64 28.7094 4.64H25.0014V5.828H28.4454C28.5334 5.828 28.6094 5.86 28.6734 5.924C28.7374 5.98 28.7694 6.052 28.7694 6.14V7.436C28.7694 7.524 28.7374 7.6 28.6734 7.664C28.6094 7.72 28.5334 7.748 28.4454 7.748H25.0014V8.96H28.8054C28.8934 8.96 28.9694 8.992 29.0334 9.056C29.0974 9.12 29.1294 9.196 29.1294 9.284V10.688C29.1294 10.776 29.0974 10.852 29.0334 10.916C28.9694 10.972 28.8934 11 28.8054 11H22.8294Z" fill="white"/>
<path d="M32.1758 10.6016C32.1523 10.6094 32.1367 10.6016 32.1289 10.5781C32.1211 10.5547 32.1172 10.5312 32.1172 10.5078C32.125 10.4844 32.1367 10.4648 32.1523 10.4492C32.1758 10.4336 32.2031 10.4336 32.2344 10.4492C32.1328 10.3242 32.0664 10.2109 32.0352 10.1094C32.0117 10.0078 31.9609 9.88281 31.8828 9.73437C31.9063 9.71094 31.9219 9.67969 31.9297 9.64062C31.9375 9.59375 31.9492 9.55078 31.9648 9.51172C31.9727 9.47266 31.9844 9.44531 32 9.42969C32.0234 9.40625 32.0508 9.41016 32.082 9.44141C32.0664 9.35547 32.0664 9.28516 32.082 9.23047C32.0977 9.17578 32.1133 9.125 32.1289 9.07812C32.1523 9.03125 32.168 8.98437 32.1758 8.9375C32.1836 8.89062 32.1719 8.83594 32.1406 8.77344C32.2891 8.57031 32.3867 8.35156 32.4336 8.11719C32.4805 7.875 32.5078 7.65625 32.5156 7.46094C32.5859 7.39062 32.6445 7.29687 32.6914 7.17969C32.7461 7.0625 32.7852 6.94141 32.8086 6.81641C32.832 6.69141 32.8437 6.57031 32.8437 6.45312C32.8437 6.32812 32.8281 6.23047 32.7969 6.16016C32.8047 6.12891 32.8203 6.11328 32.8437 6.11328C32.875 6.10547 32.9102 6.10547 32.9492 6.11328C33.0039 5.80078 33.0391 5.45312 33.0547 5.07031C33.0781 4.6875 33.1172 4.32031 33.1719 3.96875C33.2344 3.60937 33.332 3.29687 33.4648 3.03125C33.5977 2.75781 33.8086 2.58203 34.0977 2.50391C34.1523 2.69922 34.2227 2.87109 34.3086 3.01953C34.4023 3.16797 34.5 3.3125 34.6016 3.45312C34.7109 3.59375 34.8203 3.73437 34.9297 3.875C35.0391 4.01562 35.1406 4.17187 35.2344 4.34375C35.2266 4.52344 35.207 4.73047 35.1758 4.96484C35.1523 5.19922 35.1172 5.4375 35.0703 5.67969C35.0312 5.92187 34.9883 6.15625 34.9414 6.38281C34.9023 6.60937 34.8633 6.80078 34.8242 6.95703C34.832 6.99609 34.8594 7.02344 34.9062 7.03906C34.9531 7.04687 34.9609 7.08984 34.9297 7.16797C35.1562 7.11328 35.3906 7.0625 35.6328 7.01562C35.8828 6.96094 36.125 6.91016 36.3594 6.86328C36.6016 6.80859 36.8359 6.74609 37.0625 6.67578C37.2969 6.60547 37.5156 6.51953 37.7187 6.41797C37.7656 6.04297 37.8242 5.67187 37.8945 5.30469C37.9648 4.9375 37.9727 4.56641 37.918 4.19141C37.9648 4.15234 38.0039 4.10547 38.0352 4.05078C38.0664 3.99609 38.1133 3.96094 38.1758 3.94531C38.1289 3.76562 38.1094 3.57812 38.1172 3.38281C38.125 3.17969 38.1562 2.99219 38.2109 2.82031C38.2734 2.64844 38.3633 2.5 38.4805 2.375C38.5977 2.24219 38.7422 2.15625 38.9141 2.11719C39.0156 2.26562 39.1055 2.42578 39.1836 2.59766C39.2617 2.76953 39.3398 2.94531 39.418 3.125C39.4961 3.29687 39.5781 3.46094 39.6641 3.61719C39.7578 3.77344 39.875 3.90625 40.0156 4.01562C40.0391 4.28906 40.0586 4.57031 40.0742 4.85937C40.0898 5.14062 40.1016 5.43359 40.1094 5.73828C40.0391 6.08984 39.957 6.43359 39.8633 6.76953C39.7773 7.09766 39.7148 7.44922 39.6758 7.82422C39.6133 7.89453 39.5625 7.98047 39.5234 8.08203C39.4844 8.17578 39.4453 8.27344 39.4062 8.375C39.375 8.46875 39.3359 8.5625 39.2891 8.65625C39.2422 8.75 39.1836 8.82812 39.1133 8.89062C39.1445 9 39.1484 9.10547 39.125 9.20703C39.1094 9.30078 39.1367 9.41406 39.207 9.54687C39.2227 9.78906 39.1914 9.99219 39.1133 10.1562C39.043 10.3125 38.9414 10.4492 38.8086 10.5664C38.6836 10.6758 38.5352 10.7656 38.3633 10.8359C38.1992 10.8984 38.0352 10.957 37.8711 11.0117C37.793 10.9648 37.7187 10.918 37.6484 10.8711C37.5859 10.8164 37.5078 10.7773 37.4141 10.7539L37.4727 10.6484C37.3164 10.4922 37.1797 10.3281 37.0625 10.1562C36.9531 9.97656 36.9023 9.77344 36.9102 9.54687C36.9102 9.53906 36.918 9.48828 36.9336 9.39453C36.9492 9.29297 36.9648 9.1875 36.9805 9.07812C37.0039 8.96875 37.0234 8.86719 37.0391 8.77344C37.0625 8.67187 37.0742 8.61719 37.0742 8.60937C36.8555 8.63281 36.6289 8.68359 36.3945 8.76172C36.1602 8.83984 35.9297 8.92969 35.7031 9.03125C35.4844 9.125 35.2773 9.22656 35.082 9.33594C34.8945 9.4375 34.7422 9.52344 34.625 9.59375C34.625 9.61719 34.6055 9.68359 34.5664 9.79297C34.5273 9.90234 34.4805 10.0195 34.4258 10.1445C34.3711 10.2617 34.3086 10.3672 34.2383 10.4609C34.1758 10.5547 34.1094 10.5977 34.0391 10.5898C34.0547 10.6289 34.0703 10.6602 34.0859 10.6836C34.1016 10.6992 34.1016 10.7344 34.0859 10.7891C33.9531 10.8281 33.832 10.8789 33.7227 10.9414C33.6211 11.0039 33.5156 11.0547 33.4062 11.0937C33.2969 11.1406 33.1758 11.1602 33.043 11.1523C32.918 11.1523 32.7656 11.1055 32.5859 11.0117C32.5859 10.957 32.5625 10.9102 32.5156 10.8711C32.4687 10.8242 32.418 10.7852 32.3633 10.7539C32.3164 10.7227 32.2734 10.6953 32.2344 10.6719C32.1953 10.6484 32.1758 10.625 32.1758 10.6016ZM41.1875 5.19922C41.1719 5.09766 41.1523 5.03516 41.1289 5.01172C41.1836 4.87109 41.2227 4.73437 41.2461 4.60156C41.2773 4.46094 41.3008 4.32812 41.3164 4.20312C41.332 4.09375 41.3477 3.99219 41.3633 3.89844C41.3867 3.80469 41.4141 3.71484 41.4453 3.62891C41.5781 3.59766 41.6758 3.54297 41.7383 3.46484C41.8086 3.37891 41.8633 3.30469 41.9023 3.24219C42.043 3.23437 42.1328 3.25391 42.1719 3.30078C42.2187 3.34766 42.2695 3.42578 42.3242 3.53516C42.3633 3.62109 42.418 3.71484 42.4883 3.81641C42.5586 3.91016 42.6641 3.98437 42.8047 4.03906C42.8281 4.125 42.8555 4.20703 42.8867 4.28516C42.918 4.36328 42.9531 4.44531 42.9922 4.53125C43.0625 4.69531 43.1289 4.86719 43.1914 5.04687C43.2539 5.21875 43.2891 5.38281 43.2969 5.53906C43.2031 5.71875 43.1289 5.92578 43.0742 6.16016C43.0273 6.39453 42.9961 6.63281 42.9805 6.875C42.9727 7.10937 42.9805 7.33594 43.0039 7.55469C43.0273 7.77344 43.0664 7.95703 43.1211 8.10547L43.1914 8.29297L43.4492 8.26953C43.7305 8.19922 43.9844 8.12109 44.2109 8.03516C44.4375 7.94141 44.6484 7.83203 44.8437 7.70703C45.0391 7.58203 45.2266 7.44141 45.4062 7.28516C45.5859 7.12109 45.7734 6.92969 45.9687 6.71094C46.1562 6.49219 46.3242 6.24609 46.4727 5.97266C46.6211 5.69141 46.7422 5.40234 46.8359 5.10547C46.9375 4.80859 47.0156 4.51172 47.0703 4.21484C47.125 3.91797 47.1602 3.64062 47.1758 3.38281C47.3242 3.3125 47.4062 3.19922 47.4219 3.04297L47.3867 2.89062C47.3633 2.85156 47.3516 2.81641 47.3516 2.78516C47.3594 2.74609 47.3711 2.71094 47.3867 2.67969C47.4492 2.5 47.582 2.36719 47.7852 2.28125C47.9258 2.375 48.0547 2.47656 48.1719 2.58594C48.2969 2.69531 48.4102 2.80469 48.5117 2.91406C48.5273 3.125 48.5586 3.30859 48.6055 3.46484C48.6523 3.61328 48.7031 3.75781 48.7578 3.89844C48.8125 4.03125 48.8594 4.16016 48.8984 4.28516C48.9453 4.41016 48.9766 4.5625 48.9922 4.74219C48.9141 4.97656 48.8555 5.19922 48.8164 5.41016C48.7852 5.61328 48.7539 5.82812 48.7227 6.05469L48.6992 6.18359C48.5586 6.42578 48.418 6.67578 48.2773 6.93359C48.1445 7.18359 48.0352 7.40234 47.9492 7.58984C47.9023 7.63672 47.8594 7.69141 47.8203 7.75391C47.7891 7.81641 47.7578 7.87891 47.7266 7.94141C47.7109 7.96484 47.6875 8.00391 47.6562 8.05859C47.6328 8.11328 47.6094 8.15234 47.5859 8.17578L47.3047 8.07031L47.2344 8.43359L47.0469 8.48047L46.9062 8.64453C46.7266 8.95703 46.5352 9.21875 46.332 9.42969C46.1367 9.64062 45.9141 9.82812 45.6641 9.99219C45.4219 10.1562 45.1445 10.3125 44.832 10.4609C44.5273 10.6016 44.1758 10.7539 43.7773 10.918C43.6211 10.8945 43.4844 10.8828 43.3672 10.8828C43.2578 10.875 43.1484 10.8672 43.0391 10.8594C42.9297 10.8594 42.8242 10.8555 42.7227 10.8477C42.6211 10.8398 42.5039 10.8281 42.3711 10.8125C42.3398 10.7422 42.2969 10.6914 42.2422 10.6602C42.1875 10.6289 42.1367 10.6133 42.0898 10.6133C41.9336 10.5352 41.8164 10.4258 41.7383 10.2852C41.6602 10.1445 41.5781 9.98828 41.4922 9.81641C41.4531 9.72266 41.4102 9.62891 41.3633 9.53516C41.3242 9.44141 41.2734 9.35156 41.2109 9.26562L41.4453 9.19531L41.1406 8.84375C41.1172 8.82031 41.0898 8.79687 41.0586 8.77344C41.0352 8.75 41.0117 8.72266 40.9883 8.69141V8.46875C40.957 7.82812 40.9414 7.23828 40.9414 6.69922C40.9492 6.15234 41.0234 5.67187 41.1641 5.25781L41.1875 5.19922ZM50.8086 9.89844C50.7305 9.96094 50.6836 10.043 50.668 10.1445C50.6523 10.2383 50.6328 10.332 50.6094 10.4258C50.5859 10.5195 50.543 10.6016 50.4805 10.6719C50.4258 10.7344 50.3242 10.7617 50.1758 10.7539C50.1445 10.793 50.1367 10.8164 50.1523 10.8242C50.1758 10.832 50.1953 10.8672 50.2109 10.9297C50.1016 10.9141 50.0234 10.9219 49.9766 10.9531C49.9297 10.9844 49.8711 11.0078 49.8008 11.0234C49.6211 10.9687 49.4687 10.8711 49.3437 10.7305C49.2266 10.582 49.1211 10.4219 49.0273 10.25C48.9414 10.0781 48.8633 9.90234 48.793 9.72266C48.7305 9.54297 48.6641 9.38672 48.5937 9.25391C48.5937 9.22266 48.6094 9.21094 48.6406 9.21875C48.6641 9.21875 48.6875 9.21875 48.7109 9.21875C48.6719 9.14062 48.6445 9.05469 48.6289 8.96094C48.6055 8.85937 48.5664 8.77734 48.5117 8.71484C48.7383 8.23047 48.9805 7.72656 49.2383 7.20312C49.4961 6.67187 49.7539 6.13672 50.0117 5.59766C50.2773 5.05078 50.5391 4.50391 50.7969 3.95703C51.0625 3.40234 51.3164 2.85937 51.5586 2.32812C51.7773 2.40625 51.9883 2.5 52.1914 2.60937C52.4023 2.71094 52.5937 2.83203 52.7656 2.97266C52.9375 3.11328 53.082 3.27734 53.1992 3.46484C53.3242 3.64453 53.4062 3.85156 53.4453 4.08594C53.4297 4.13281 53.4102 4.14844 53.3867 4.13281C53.3633 4.11719 53.3437 4.125 53.3281 4.15625C53.3672 4.20312 53.3867 4.23828 53.3867 4.26172C53.3945 4.27734 53.3945 4.29687 53.3867 4.32031C53.3789 4.33594 53.375 4.35937 53.375 4.39062C53.375 4.42187 53.3945 4.46484 53.4336 4.51953C53.3945 4.51172 53.3672 4.51953 53.3516 4.54297C53.3359 4.55859 53.3086 4.55859 53.2695 4.54297C53.3086 4.65234 53.3203 4.73828 53.3047 4.80078C53.2891 4.86328 53.2656 4.92187 53.2344 4.97656C53.2031 5.02344 53.1758 5.07812 53.1523 5.14062C53.1367 5.19531 53.1445 5.27344 53.1758 5.375C53.1445 5.375 53.1211 5.38281 53.1055 5.39844C53.0977 5.40625 53.0898 5.41797 53.082 5.43359C53.0742 5.44922 53.0625 5.46484 53.0469 5.48047C53.0391 5.48828 53.0195 5.48828 52.9883 5.48047C53.0117 5.68359 53.0195 5.89062 53.0117 6.10156C53.0039 6.30469 52.9961 6.51562 52.9883 6.73437C52.9805 6.94531 52.9805 7.16406 52.9883 7.39062C52.9961 7.61719 53.0273 7.85156 53.082 8.09375C53.418 7.89844 53.6875 7.64453 53.8906 7.33203C54.1016 7.01953 54.2656 6.67187 54.3828 6.28906C54.5078 5.90625 54.6016 5.49609 54.6641 5.05859C54.7344 4.62109 54.8047 4.17578 54.875 3.72266C54.9609 3.63672 55.0273 3.53125 55.0742 3.40625C55.1289 3.28125 55.1719 3.15234 55.2031 3.01953C55.2422 2.88672 55.2773 2.75391 55.3086 2.62109C55.3477 2.48047 55.3984 2.35547 55.4609 2.24609C55.6016 2.26172 55.7187 2.30469 55.8125 2.375C55.9141 2.4375 56.0078 2.51172 56.0937 2.59766C56.1797 2.67578 56.2695 2.75 56.3633 2.82031C56.457 2.89062 56.5742 2.9375 56.7148 2.96094C56.8242 3.11719 56.9258 3.26953 57.0195 3.41797C57.1133 3.55859 57.1758 3.71875 57.207 3.89844C57.1602 3.97656 57.125 4.0625 57.1016 4.15625C57.0781 4.25 57.0508 4.34375 57.0195 4.4375C56.9961 4.53125 56.9609 4.61719 56.9141 4.69531C56.8672 4.77344 56.8008 4.83984 56.7148 4.89453C56.6914 5.12891 56.6562 5.34766 56.6094 5.55078C56.5625 5.75391 56.5195 5.95312 56.4805 6.14844C56.4414 6.34375 56.4062 6.54687 56.375 6.75781C56.3437 6.96875 56.332 7.19922 56.3398 7.44922C56.2695 7.67578 56.1914 7.91016 56.1055 8.15234C56.0195 8.38672 55.957 8.60547 55.918 8.80859C55.7695 8.92578 55.6523 9.07031 55.5664 9.24219C55.4805 9.41406 55.3906 9.58594 55.2969 9.75781C55.2578 9.78906 55.2344 9.79687 55.2266 9.78125C55.2187 9.75781 55.1836 9.74219 55.1211 9.73437C55.1289 9.80469 55.1133 9.85156 55.0742 9.875C55.043 9.89062 55.0469 9.94531 55.0859 10.0391C54.9531 10.1016 54.8359 10.1836 54.7344 10.2852C54.6328 10.3867 54.5195 10.4805 54.3945 10.5664C54.2773 10.6523 54.1367 10.7109 53.9727 10.7422C53.8164 10.7656 53.6094 10.7305 53.3516 10.6367C52.9687 10.3555 52.625 10.0312 52.3203 9.66406C52.0156 9.29687 51.7734 8.86328 51.5937 8.36328C51.5156 8.38672 51.457 8.4375 51.418 8.51562C51.3789 8.59375 51.3437 8.67578 51.3125 8.76172C51.2812 8.84766 51.25 8.92578 51.2187 8.99609C51.1875 9.06641 51.1406 9.10156 51.0781 9.10156C51.0625 9.17187 51.0312 9.23828 50.9844 9.30078C50.9453 9.35547 50.9062 9.41406 50.8672 9.47656C50.8281 9.53125 50.7969 9.59375 50.7734 9.66406C50.7578 9.73437 50.7695 9.8125 50.8086 9.89844ZM57.1602 4.39062C57.1523 4.32812 57.1367 4.27344 57.1133 4.22656C57.0977 4.17187 57.0781 4.11328 57.0547 4.05078C57.0156 3.95703 56.9805 3.85547 56.9492 3.74609C56.918 3.63672 56.9023 3.50781 56.9023 3.35937C56.918 3.28125 56.9375 3.22656 56.9609 3.19531C56.9844 3.15625 57.0078 3.125 57.0312 3.10156L57.0781 2.89062H57.2539C57.3164 2.89844 57.3789 2.90234 57.4414 2.90234C57.5117 2.90234 57.5781 2.90234 57.6406 2.90234C57.9375 2.90234 58.2422 2.89062 58.5547 2.86719C58.8672 2.84375 59.1875 2.81641 59.5156 2.78516C59.875 2.73828 60.2617 2.70312 60.6758 2.67969C60.7148 2.59375 60.7383 2.53906 60.7461 2.51562C60.7617 2.49219 60.7773 2.46484 60.793 2.43359L60.9219 2.36328C61.1016 2.35547 61.2266 2.37891 61.2969 2.43359C61.3672 2.48047 61.4219 2.52734 61.4609 2.57422C61.6641 2.55859 61.8711 2.53906 62.082 2.51562C62.293 2.48437 62.5117 2.45312 62.7383 2.42187C63.0508 2.38281 63.3672 2.34375 63.6875 2.30469C64.0078 2.26562 64.3203 2.24609 64.625 2.24609C64.7578 2.24609 64.8828 2.25 65 2.25781C65.1172 2.26562 65.2305 2.27734 65.3398 2.29297L65.4805 2.39844C65.5117 2.45312 65.5508 2.50391 65.5977 2.55078C65.6445 2.59766 65.6992 2.64453 65.7617 2.69141C65.8789 2.78516 65.9922 2.90234 66.1016 3.04297C66.2187 3.18359 66.2617 3.39062 66.2305 3.66406L66.1719 3.78125C66.1406 3.8125 66.1016 3.84375 66.0547 3.875L65.9375 4.02734H65.8086C65.7305 4.02734 65.6719 4.03516 65.6328 4.05078C65.5937 4.05859 65.5469 4.07422 65.4922 4.09766C65.4609 4.11328 65.4258 4.12891 65.3867 4.14453C65.3477 4.15234 65.3047 4.16406 65.2578 4.17969C65.1719 4.17187 65.1055 4.16797 65.0586 4.16797C65.0117 4.16797 64.957 4.16797 64.8945 4.16797C64.6602 4.16797 64.4062 4.18359 64.1328 4.21484C63.8594 4.24609 63.5937 4.28125 63.3359 4.32031C63.1484 4.34375 62.9687 4.36719 62.7969 4.39062C62.625 4.40625 62.4687 4.42187 62.3281 4.4375C62.25 4.64062 62.1797 4.82031 62.1172 4.97656C62.0547 5.13281 61.9883 5.28906 61.918 5.44531C61.8477 5.60156 61.7812 5.76172 61.7187 5.92578C61.6562 6.08203 61.5977 6.25781 61.543 6.45312C61.4492 6.59375 61.3711 6.73047 61.3086 6.86328C61.2461 6.98828 61.1953 7.13281 61.1562 7.29687C61.0391 7.42969 60.9531 7.57422 60.8984 7.73047C60.8516 7.88672 60.8086 8.01953 60.7695 8.12891L60.7227 8.30469C60.668 8.35937 60.6328 8.40234 60.6172 8.43359C60.6094 8.46484 60.5898 8.5 60.5586 8.53906C60.5352 8.64062 60.5039 8.73828 60.4648 8.83203C60.4492 8.87109 60.4336 8.91406 60.418 8.96094C60.4023 9 60.3984 9.03125 60.4062 9.05469C60.3906 9.14062 60.3672 9.20703 60.3359 9.25391C60.3359 9.30078 60.332 9.34766 60.3242 9.39453C60.3164 9.44141 60.3086 9.48828 60.3008 9.53516C60.2852 9.58984 60.2734 9.64062 60.2656 9.6875C60.2578 9.72656 60.2617 9.76562 60.2773 9.80469C60.3008 9.83594 60.3242 9.86719 60.3477 9.89844C60.3711 9.92969 60.3906 9.96875 60.4062 10.0156C60.4219 10.0312 60.4414 10.043 60.4648 10.0508C60.4883 10.0586 60.5078 10.0703 60.5234 10.0859C60.5859 10.1406 60.6445 10.1719 60.6992 10.1797L60.8164 10.3203C60.8633 10.6016 60.8203 10.8203 60.6875 10.9766C60.5469 11.1562 60.3125 11.2461 59.9844 11.2461L59.8203 11.2344C59.7656 11.1797 59.7344 11.1445 59.7266 11.1289C59.6562 11.0977 59.5977 11.0703 59.5508 11.0469C59.5039 11.0312 59.4609 10.9961 59.4219 10.9414C59.4062 10.9258 59.3867 10.918 59.3633 10.918C59.3398 10.9102 59.3203 10.8984 59.3047 10.8828C59.2266 10.8594 59.1641 10.832 59.1172 10.8008L58.9883 10.7305C58.9961 10.6523 59 10.5977 59 10.5664C58.9375 10.4805 58.8867 10.3867 58.8477 10.2852C58.8164 10.1836 58.7891 10.0781 58.7656 9.96875C58.7422 9.88281 58.7187 9.80469 58.6953 9.73437C58.6797 9.66406 58.6523 9.60156 58.6133 9.54687C58.5977 9 58.6484 8.54297 58.7656 8.17578C58.8828 7.80078 59.0117 7.4375 59.1523 7.08594C59.2305 6.89844 59.3047 6.70703 59.375 6.51172C59.4453 6.31641 59.5078 6.11719 59.5625 5.91406L59.6914 5.78516C59.7461 5.73828 59.7812 5.71094 59.7969 5.70312C59.7969 5.60156 59.8164 5.50391 59.8555 5.41016C59.8945 5.30859 59.9375 5.20703 59.9844 5.10547C60.0156 5.04297 60.043 4.98047 60.0664 4.91797C60.0977 4.85547 60.1172 4.80078 60.125 4.75391C60.0703 4.75391 60.0195 4.75781 59.9727 4.76562C59.9336 4.76562 59.8906 4.76953 59.8437 4.77734C59.7422 4.80078 59.6445 4.8125 59.5508 4.8125C59.4805 4.8125 59.4297 4.80859 59.3984 4.80078C59.3359 4.83203 59.2773 4.85156 59.2227 4.85937C59.168 4.85937 59.1133 4.85937 59.0586 4.85937H58.918H58.7773C58.6836 4.85937 58.6094 4.87109 58.5547 4.89453C58.4453 4.89453 58.375 4.89453 58.3437 4.89453C58.3125 4.89453 58.2773 4.89453 58.2383 4.89453H58.0977H57.957C57.8945 4.89453 57.8242 4.89062 57.7461 4.88281C57.668 4.86719 57.5859 4.83594 57.5 4.78906L57.418 4.69531C57.3711 4.60937 57.3281 4.5625 57.2891 4.55469L57.1602 4.51953V4.39062Z" fill="#FF4141"/>
</g>
<defs>
<clipPath id="clip0_1_5">
<rect width="67" height="13" fill="white"/>
</clipPath>
</defs>
</svg>
